<?xml version="1.0" encoding="UTF-8"?>
<svg xmlns="http://www.w3.org/2000/svg" xmlns:xlink="http://www.w3.org/1999/xlink" width="16px" height="16px" viewBox="0 0 16 16" version="1.1">
<g id="surface1">
<path style=" stroke:none;fill-rule:nonzero;fill:white;fill-opacity:0.75;" d="M 16 8 L 8 16 L 0 8 L 8 0 Z M 10.851562 5.976562 C 10.851562 5.253906 10.585938 4.652344 10.050781 4.175781 C 9.519531 3.695312 8.867188 3.453125 8.105469 3.453125 C 7.179688 3.453125 6.378906 3.59375 5.695312 3.878906 L 5.523438 5.5625 C 6.046875 5.230469 6.621094 5.0625 7.246094 5.0625 C 7.71875 5.0625 8.105469 5.191406 8.414062 5.449219 C 8.722656 5.707031 8.875 6.046875 8.875 6.464844 C 8.875 6.925781 8.609375 7.503906 8.078125 8.203125 C 7.550781 8.902344 7.285156 9.617188 7.285156 10.34375 L 8.714844 10.34375 C 8.714844 10.003906 8.902344 9.605469 9.269531 9.148438 C 9.898438 8.371094 10.238281 7.933594 10.296875 7.839844 C 10.667969 7.25 10.851562 6.628906 10.851562 5.976562 Z M 9.089844 13.347656 L 9.089844 11.371094 L 6.910156 11.371094 L 6.910156 13.347656 Z M 9.089844 13.347656 "/>
</g>
</svg>